<?xml version="1.0" encoding="UTF-8" standalone="no"?>
<svg
   xmlns:dc="http://purl.org/dc/elements/1.1/"
   xmlns:cc="http://creativecommons.org/ns#"
   xmlns:rdf="http://www.w3.org/1999/02/22-rdf-syntax-ns#"
   xmlns:svg="http://www.w3.org/2000/svg"
   xmlns="http://www.w3.org/2000/svg"
   xmlns:sodipodi="http://sodipodi.sourceforge.net/DTD/sodipodi-0.dtd"
   xmlns:inkscape="http://www.inkscape.org/namespaces/inkscape"
   width="128"
   height="128"
   viewBox="0 0 33.866665 33.866667"
   version="1.1"
   id="svg8"
   inkscape:version="1.0.2-2 (e86c870879, 2021-01-15)"
   sodipodi:docname="icon.svg"
   inkscape:export-filename="icon-256x256.png"
   inkscape:export-xdpi="192"
   inkscape:export-ydpi="192">
  <defs
     id="defs2" />
  <sodipodi:namedview
     id="base"
     pagecolor="#ffffff"
     bordercolor="#7d7d7d"
     borderopacity="0.49019608"
     inkscape:pageopacity="0.0"
     inkscape:pageshadow="2"
     inkscape:zoom="1"
     inkscape:cx="-73.48793"
     inkscape:cy="85.73033"
     inkscape:document-units="px"
     inkscape:current-layer="g1447-6-6"
     showgrid="false"
     inkscape:snap-bbox="true"
     inkscape:bbox-paths="true"
     inkscape:bbox-nodes="true"
     inkscape:object-paths="true"
     units="px"
     borderlayer="true"
     inkscape:showpageshadow="false"
     inkscape:pagecheckerboard="false"
     showguides="true"
     inkscape:guide-bbox="true"
     inkscape:document-rotation="0"
     fit-margin-top="0"
     fit-margin-left="0"
     fit-margin-right="0"
     fit-margin-bottom="0">
    <inkscape:grid
       type="xygrid"
       id="grid4499"
       spacingx="5.2916667"
       spacingy="5.2916667"
       empspacing="20"
       dotted="true"
       originx="-25.929182"
       originy="3.7041493" />
  </sodipodi:namedview>
  <metadata
     id="metadata5">
    <rdf:RDF>
      <cc:Work
         rdf:about="">
        <dc:format>image/svg+xml</dc:format>
        <dc:type
           rdf:resource="http://purl.org/dc/dcmitype/StillImage" />
        <dc:title />
        <cc:license
           rdf:resource="http://creativecommons.org/publicdomain/zero/1.0/" />
      </cc:Work>
      <cc:License
         rdf:about="http://creativecommons.org/publicdomain/zero/1.0/">
        <cc:permits
           rdf:resource="http://creativecommons.org/ns#Reproduction" />
        <cc:permits
           rdf:resource="http://creativecommons.org/ns#Distribution" />
        <cc:permits
           rdf:resource="http://creativecommons.org/ns#DerivativeWorks" />
      </cc:License>
    </rdf:RDF>
  </metadata>
  <g
     id="g1447-6-6"
     inkscape:export-filename="export/themeforest/webman-design.png"
     inkscape:export-xdpi="384.49957"
     inkscape:export-ydpi="384.49957"
     transform="matrix(0.26458333,0,0,0.26458333,-164.04096,-172.50764)"
     style="display:inline">
    <rect
       transform="rotate(15)"
       ry="10"
       rx="10"
       y="460.48224"
       x="791.91785"
       height="108.1732"
       width="108.1732"
       id="rect1608-1-0-9"
       style="display:inline;fill:#fbce2f;fill-opacity:1;stroke:none;stroke-width:1.99999;stroke-linecap:round;stroke-linejoin:round" />
    <path
       id="rect1003"
       style="fill:#1a1a1a;fill-opacity:1;stroke:none;stroke-width:1.50001;stroke-linecap:round;stroke-linejoin:round;stop-color:#000000"
       d="m 679.68135,712.01149 c -0.73761,0.0737 -1.25191,0.44667 -1.62073,1.11051 -1.54898,2.72919 -2.58361,7.30244 -3.24746,13.57216 -0.9589,-2.43413 -1.76899,-5.16257 -2.35908,-8.48184 -0.22127,-1.47523 -0.8865,-2.14472 -1.99291,-2.07094 -0.73763,0.0737 -1.32656,0.51778 -1.84285,1.47668 l -5.38444,10.33068 c -0.88512,-3.61436 -1.77152,-7.97066 -2.50915,-13.13395 -0.14751,-1.25396 -0.883,-1.84457 -2.13696,-1.77082 -0.66384,0 -1.1799,0.29567 -1.54872,0.73834 -0.29503,0.44254 -0.44419,1.0349 -0.44419,1.69874 1.40148,9.29397 2.80393,15.56098 4.05785,18.80659 0.44255,1.18018 1.02894,1.77251 1.69279,1.69875 1.03266,-0.0737 2.28846,-1.47702 3.7637,-4.27995 0.73763,-1.62275 1.91886,-3.9835 3.54161,-7.15523 1.3277,4.72073 3.16987,8.18641 5.45647,10.54679 0.59009,0.66374 1.25702,0.96215 1.92087,0.88839 0.59009,-0.0737 1.03157,-0.37205 1.32659,-0.88839 0.22128,-0.44257 0.36793,-1.03067 0.29415,-1.62076 -0.14752,-2.28661 0.0762,-5.38539 0.66627,-9.44227 0.66385,-4.13066 1.47222,-7.15579 2.43113,-8.92606 0.1475,-0.36882 0.22217,-0.73398 0.22217,-1.17652 0,-0.59012 -0.29567,-1.03584 -0.73833,-1.40466 -0.44255,-0.36867 -0.95861,-0.58999 -1.54869,-0.51624 z m 9.73644,2.65921 c -2.36036,0 -4.27965,1.25154 -5.82865,3.68568 -1.25393,2.13907 -1.91486,4.42353 -1.91486,7.00518 0,1.91781 0.36514,3.54049 1.17653,4.86821 0.88511,1.54899 2.21553,2.51249 3.98582,2.8813 0.44255,0.0737 0.88402,0.1441 1.3266,0.1441 2.43412,0 4.35341,-1.25154 5.82861,-3.68568 1.25396,-2.13909 1.91489,-4.42351 1.91489,-7.00514 0,-1.91782 -0.36514,-3.54054 -1.17653,-4.86824 -0.88514,-1.54899 -2.21555,-2.5125 -3.98582,-2.88132 -0.44257,-0.0737 -0.88402,-0.14409 -1.32659,-0.14409 z m 15.49305,0 c -2.36039,0 -4.27968,1.25154 -5.82866,3.68568 -1.25397,2.13907 -1.92088,4.42353 -1.92088,7.00518 0,1.91781 0.37118,3.54049 1.18254,4.86821 0.88514,1.54899 2.20953,2.51249 3.97981,2.8813 0.44258,0.0737 0.89006,0.1441 1.33263,0.1441 2.43412,0 4.3474,-1.25154 5.82265,-3.68568 1.25393,-2.13909 1.92086,-4.42351 1.92086,-7.00514 0,-1.91782 -0.37117,-3.54054 -1.18255,-4.86824 -0.88513,-1.54899 -2.20953,-2.5125 -3.9798,-2.88132 -0.44257,-0.0737 -0.88403,-0.14409 -1.3266,-0.14409 z m -14.97682,4.20192 c 0.59009,0.14751 1.10786,0.6618 1.47668,1.62071 0.29505,0.73763 0.44419,1.54943 0.44419,2.28704 -0.0737,0.51632 -0.14844,1.18075 -0.22219,1.77084 -0.36879,1.62275 -0.96372,2.88029 -1.84885,3.69168 -0.73762,0.66376 -1.39679,0.88411 -1.9869,0.81036 -0.59008,-0.14752 -1.10786,-0.66184 -1.47668,-1.62075 -0.29503,-0.7376 -0.44419,-1.5494 -0.44419,-2.28703 0,-0.59009 0.0762,-1.25449 0.15003,-1.77081 0.22128,-1.03267 0.66275,-1.99443 1.3266,-2.95333 0.81138,-1.18018 1.69603,-1.69623 2.58118,-1.54871 z m 15.49306,0 c 0.59009,0.14751 1.10183,0.6618 1.47064,1.62071 0.29505,0.73763 0.44419,1.54943 0.44419,2.28704 -0.0737,0.51632 -0.14842,1.18075 -0.22218,1.77084 -0.36879,1.62275 -0.9577,2.88029 -1.84284,3.69168 -0.73761,0.66376 -1.4028,0.88411 -1.99291,0.81036 -0.59009,-0.14752 -1.10786,-0.66184 -1.47668,-1.62075 -0.29503,-0.7376 -0.4381,-1.5494 -0.43818,-2.28703 0,-0.59009 0.0704,-1.25449 0.14409,-1.77081 0.22127,-1.03267 0.66274,-1.99443 1.3266,-2.95333 0.81139,-1.18018 1.70203,-1.69623 2.58717,-1.54871 z"
       sodipodi:nodetypes="cccccccccccccccccccccsccscsccscsccsscsccscsccscccccccsccccccccccsccc" />
    <g
       id="g879"
       transform="matrix(1.5118109,0,0,1.5118109,671.99733,685.99731)"
       style="display:inline;fill:#1a1a1a;fill-opacity:1;stroke-width:2.5">
      <path
         inkscape:connector-curvature="0"
         id="path4733-2"
         d="M -5e-7,5.2916668 1.3229162,3.9687501 3.9687495,6.6145833 6.614583,3.9687501 9.2604162,6.6145833 11.906249,3.9687501 13.229166,5.2916668 9.2604162,9.2604168 6.614583,6.6145833 3.9687495,9.2604168 Z"
         style="opacity:1;fill:#1a1a1a;fill-opacity:1;stroke:none;stroke-width:3.96874;stroke-linecap:round;stroke-linejoin:round;stroke-miterlimit:3.8637;stroke-dasharray:none;stroke-opacity:1" />
      <path
         style="opacity:1;fill:#1a1a1a;fill-opacity:1;stroke:none;stroke-width:3.96874;stroke-linecap:round;stroke-linejoin:round;stroke-miterlimit:3.8637;stroke-dasharray:none;stroke-opacity:1"
         d="M 2.645833,3.96875 3.9687498,5.2916668 6.614583,2.6458335 9.2604162,5.2916668 11.906249,2.6458335 14.552083,5.2916668 15.874999,3.96875 11.906249,0 9.2604162,2.6458335 6.6145827,0 Z"
         id="path4735-0"
         inkscape:connector-curvature="0" />
    </g>
  </g>
</svg>
